<svg width="22" height="10" viewBox="0 0 22 10" fill="none" xmlns="http://www.w3.org/2000/svg">
<path d="M1.5 0.75C1.5 0.75 2.28748 2.21247 3.80909 3.75M21 0.75C21 0.75 20.325 2.21247 18.9217 3.75M18.9217 3.75C17.8201 4.95696 16.2696 6.21018 14.2446 6.83852M18.9217 3.75L21 5.75M14.2446 6.83852C13.4108 7.09722 12.4965 7.25 11.5 7.25C10.4158 7.25 9.41498 7.06914 8.5 6.76776M14.2446 6.83852L15.5 9.25M8.5 6.76776C6.53159 6.11938 4.96025 4.91321 3.80909 3.75M8.5 6.76776L7.5 9.25M3.80909 3.75L2 5.75" stroke="white" stroke-width="2"/>
</svg>
